# xmcd
#
# Track frame offsets:
#	150
#	28362
#	50501
#	68381
#	86484
#	100942
#	124422
#	146440
#	157648
#
# Disc length: 2308 seconds
#
# Revision: 0
# Processed by: cddbd v1.5.2PL0 Copyright (c) Steve Scherf et al.
# Submitted via: EasyCDDAExtractor 9.0.0.1
#
DISCID=6f090209
DTITLE=Banjo Jim - Private Stock
DYEAR=2007
DGENRE=Blues
TTITLE0=Billy the Kid
TTITLE1=No Expectations
TTITLE2=Goodnight, Irene
TTITLE3=Paradise
TTITLE4=My Dream
TTITLE5=Rider
TTITLE6=What about You
TTITLE7=Public Radio
TTITLE8=Hobo's Highway
EXTD=
EXTT0=
EXTT1=
EXTT2=
EXTT3=
EXTT4=
EXTT5=
EXTT6=
EXTT7=
EXTT8=
PLAYORDER=
